<svg width="342px" height="265px" viewBox="0 0 2588 2009" xmlns="http://www.w3.org/2000/svg" fill-rule="evenodd" clip-rule="evenodd" stroke-linejoin="round" stroke-miterlimit="2">
  <g fill-rule="nonzero">
    <path d="M1687.235 1097.613c140.17-157.741 221.192-368.233 209.987-595.15-4.12-83.396-72.108-148.525-154.229-150.442l95.188-96.533-207.721 1.458 96.829 95.48c-85.388 6.345-150.596 79.645-146.35 165.645 14.079 285.234-206.521 528.738-491.75 542.817-35.83 1.771-68.276 15.334-93.8 36.725h691.846z" fill="#b83b4a" data-darkreader-inline-fill="" style="--darkreader-inline-fill:#8f343c;"></path>
    <path d="M987.96 1107.068h596.57c-12.47-98.492-32.533-203.596-60.516-311.622-123.6-477.17-354.334-830.184-515.363-788.471-161.021 41.708-191.363 462.342-67.759 939.517 14.334 55.346 30.125 108.992 47.067 160.576z" fill="#cc810d" data-darkreader-inline-fill="" style="--darkreader-inline-fill:#a16a13;"></path>
    <path d="M945.76 633.755c-1.2-12.784-1.018-24.792-.43-36.575.57-11.792 1.72-23.255 3.25-34.509 3.112-22.475 7.85-44.041 13.767-64.95 11.883-41.779 28.562-80.875 48.8-117.979 20.204-37.12 44.379-72.017 73.712-104.025 14.713-15.98 30.671-31.258 48.413-45.538 8.841-7.158 18.283-13.979 28.175-20.545 9.904-6.563 20.304-12.846 32.179-18.305l3.637 2.038c1.542 12.975 1.621 25.129 1.192 37-.433 11.867-1.317 23.483-2.808 34.758-2.909 22.588-7.604 44.18-13.554 65.067-11.975 41.73-29.105 80.575-50.217 117.188-21.075 36.633-45.7 71.275-75.133 103.229-14.738 15.962-30.655 31.266-48.2 45.658-8.792 7.18-17.976 14.15-27.726 20.792-9.745 6.654-19.891 13.079-31.416 18.733l-3.642-2.037zM1049.46 924.017c-1.2-12.779-1.022-24.787-.434-36.57.57-11.792 1.72-23.255 3.254-34.509 3.113-22.475 7.85-44.042 13.767-64.95 11.879-41.783 28.558-80.88 48.796-117.98 20.2-37.124 44.379-72.02 73.716-104.024 14.709-15.98 30.663-31.263 48.409-45.542 8.841-7.154 18.287-13.975 28.175-20.546 9.904-6.558 20.308-12.841 32.183-18.3l3.633 2.038c1.546 12.975 1.617 25.125 1.196 36.996-.437 11.866-1.325 23.483-2.808 34.758-2.908 22.592-7.608 44.18-13.554 65.067-11.975 41.733-29.109 80.575-50.217 117.191-21.075 36.63-45.708 71.275-75.133 103.23-14.738 15.962-30.659 31.262-48.2 45.654-8.8 7.183-17.975 14.15-27.734 20.796-9.741 6.654-19.883 13.079-31.416 18.729l-3.634-2.038zM1409.614 788.155l-3.634-2.034c-11.533 5.65-21.675 12.075-31.416 18.73-9.759 6.641-18.934 13.612-27.734 20.795-17.541 14.392-33.462 29.692-48.2 45.655-29.429 31.954-54.058 66.596-75.133 103.229-21.109 36.617-38.242 75.458-50.217 117.188-.654 2.304-1.233 4.645-1.858 6.966h137.496c12.966-18.162 24.704-37.025 35.312-56.516 20.238-37.1 36.917-76.196 48.796-117.984 5.921-20.904 10.654-42.47 13.767-64.946 1.533-11.254 2.683-22.72 3.254-34.508.587-11.784.77-23.792-.433-36.575z" fill="#e1bb4b" data-darkreader-inline-fill="" style="--darkreader-inline-fill:#987a21;"></path>
    <path d="M2536.327 385.463l-287.904-114.288c-7.467-2.966-11.117-11.42-8.155-18.887l30.1-75.821c2.963-7.467 11.421-11.117 18.888-8.15l287.904 114.287c7.467 2.967 11.117 11.421 8.155 18.892l-30.1 75.813c-2.967 7.47-11.421 11.12-18.888 8.154z" fill="#131514" data-darkreader-inline-fill="" style="--darkreader-inline-fill:#101011;"></path>
    <path d="M1028.81 1098.684c39.983-92.592 49.27-203.358 18.687-313.583-65.338-235.417-235.184-189.567-444.288-131.534-209.113 58.03-378.296 106.267-312.963 341.684 10.23 36.866 24.317 71.483 41.6 103.433h696.963z" fill="#cd0926" data-darkreader-inline-fill="" style="--darkreader-inline-fill:#9b0d20;"></path>
    <path d="M593.192 696.913S443.042 510.096 277.35 519.7C111.658 529.305 0 602.51 0 602.51s144.263 166.083 313.638 179.68c169.38 13.6 279.554-85.276 279.554-85.276z" fill="#26471f" data-darkreader-inline-fill="" style="--darkreader-inline-fill:#21391b;"></path>
    <path d="M598.163 710.213c-11.067 0-21.55-6.567-26.02-17.433l-97.58-237.109c-5.913-14.362.937-30.8 15.304-36.708 14.363-5.913 30.796.942 36.713 15.304l97.579 237.113c5.912 14.362-.942 30.796-15.309 36.708a28.013 28.013 0 01-10.687 2.125z" fill="#272423" data-darkreader-inline-fill="" style="--darkreader-inline-fill:#1d1f1f;"></path>
    <path d="M2483.706 548.088a173.361 173.361 0 019.296-78.892l36.263-99.82-268.322-102.763-37.475 94.408a173.405 173.405 0 01-46.97 66.504l-218.146 190.917a173.375 173.375 0 00-49.288 72.692l-143.696 406.48h655.75l79.713-166.905a173.394 173.394 0 0015.809-94.417l-32.934-288.204z" fill="#fef0bd" data-darkreader-inline-fill="" style="--darkreader-inline-fill:#5a4807;"></path>
    <path fill="#a6882d" d="M284.934 1579.801h2211.493v428.534H284.934zM2496.269 1008.584H2295.91v89.03H485.455v-89.03H285.092l.012 89.03h-.17v428.537h2211.493v-428.538l-.158-89.029z" data-darkreader-inline-fill="" style="--darkreader-inline-fill:#866f2a;"></path>
    <path d="M531.942 1378.151c14.492-3.704 26.513-2.162 32.375-20.975 4.625-15.108 5.858-29.904 6.167-51.496.308-17.879-.617-35.15-13.259-44.4-6.475-4.625-12.645-6.783-23.745-7.091l-1.538 123.962zm95.28-64.142c0 21.588-2.776 41.321-6.476 60.746-4.004 20.046-19.429 38.85-51.187 51.496-25.592 10.175-58.588 11.408-93.738 12.021-.925-18.804-1.237-60.433-1.237-104.838 0-56.12.62-117.175.929-142.766 61.98.925 120.567 12.333 141.23 51.804 7.703 25.9 10.478 49.333 10.478 71.537zM780.15 1263.747c-.924-13.567-9.25-17.271-18.812-16.963-8.633 2.163-16.962 7.713-18.5 16.963-2.775 53.962-4.625 71.542.925 110.392 1.542 11.408 11.72 16.65 18.813 14.8 13.254 2.158 17.575-18.5 17.883-26.83 1.85-41.008 2.467-59.816-.308-98.362zm-16.958 180.387c-58.283-.925-75.241-33.92-78.02-74.312-1.226-15.108-1.226-30.53-1.226-42.863 0-26.52.921-53.341 4.005-83.258 1.545-15.104 8.016-34.838 26.829-42.55 9.862-4.008 28.37-7.708 48.104-7.708 19.425 0 39.78 3.7 54.267 13.562 16.962 11.721 19.12 25.596 20.658 39.471 1.238 12.338 2.163 34.538 2.163 57.667 0 13.566-.309 27.441-.925 40.087-1.85 34.225-4.625 65.367-16.959 78.938-8.633 9.554-14.804 15.725-37.312 21.275l-21.584-.309zM982.105 1301.984c5.55-25.591 3.7-46.254-.93-56.429-4.62-10.179-22.2-5.55-23.12-5.55-.925 0 .92 48.717 1.85 69.38 20.658 4.929 22.2-7.4 22.2-7.4zm39.47 146.159c-24.974-45.325-33.612-64.442-45.328-94.359h-16.65s-.93 79.246-.93 83.259c-16.033 0-21.583.312-29.291.312-5.55 0-12.642-.312-25.592-.62-.308-60.13-1.546-115.013-1.546-171.442 0-24.059.309-48.413.93-73.7 10.17-.617 20.041-.617 36.691-.617 23.746 0 66.296 1.542 79.863 17.575 17.27 20.662 20.97 42.554 20.97 67.22 0 16.65 0 34.538-6.17 51.188l-12.025 13.567 45.641 80.788-46.562 26.829zM1244.805 1336.826l-60.13 5.55c.622 31.763 2.16 53.346 2.16 93.433l-59.513.617-2.775-101.758-5.863-137.217c55.204-3.083 86.963-1.233 143.08-3.392l-1.234 53.034-78.63 2.466c0 17.271 0 37.313 3.088 37.313 12.334 0 57.655-3.392 57.655-3.392l2.162 53.346zM1318.793 1191.284l61.358 1.846 5.55 187.175c17.58 0 32.383 1.538 57.98.925.612 13.259.612 21.588.612 31.454 0 6.784 0 13.875.612 23.742l-104.837.617-17.267-1.234-3.7-201.662-.308-42.863zM1587.664 1348.851l-14.184-83.254c-2.47 12.642-6.17 30.22-8.945 46.87-3.7 20.66-5.55 35.15-5.859 35.15-.616 0 18.192 2.163 28.988 1.234zm13.875-154.792c21.275 60.746 34.225 123.65 53.037 198.888 3.7 14.492 6.784 28.062 10.792 43.787l-64.138.309c-1.85-12.025-2.466-20.042-7.095-37-12.638.308-32.063-1.546-43.784-1.238l-6.787 38.854c-24.975 0-31.45-.616-60.125-.925l31.45-135.366 20.658-98.367 4.013-12.025c1.229 0 2.775-.308 4.312-.308 6.17 0 14.188.925 24.363.925 6.783 0 17.883.308 33.304 2.466zM1771.118 1378.151c14.492-3.704 26.517-2.162 32.375-20.975 4.625-15.108 5.858-29.904 6.167-51.496.312-17.879-.617-35.15-13.254-44.4-6.48-4.625-12.646-6.783-23.746-7.091l-1.542 123.962zm95.283-64.142c0 21.588-2.775 41.321-6.479 60.746-4.004 20.046-19.425 38.85-51.183 51.496-25.596 10.175-58.592 11.408-93.738 12.021-.929-18.804-1.237-60.433-1.237-104.838 0-56.12.617-117.175.925-142.766 61.98.925 120.567 12.333 141.23 51.804 7.707 25.9 10.482 49.333 10.482 71.537zM1984.793 1289.339c16.959.929 38.542.308 59.821 1.541 1.538 20.659.617 28.68-3.083 50.267l-59.204-2.163c.612 13.571-1.238 29.292 0 42.246 27.441 2.159 56.737.309 76.47 2.159 0 3.391-.308 6.475-.308 9.25 0 12.333.925 21.279.925 31.45 0 3.391 0 7.095-.308 10.795-15.73.925-29.913 1.234-44.096 1.234-18.192 0-35.767-.309-55.813-.309-9.866 0-20.354 0-31.762.309 0-43.788.62-87.884.929-134.75.308-33.3 1.846-68.767 2.154-102.375 50.263-2.467 77.092-3.7 129.821-7.092 0 12.025-.312 18.808-.312 27.754 0 6.167 0 13.254.62 23.742l-74.933 5.241-.92 40.7zM2177.19 1437.043h-58.28l1.854-245.142h52.109c13.262 21.892 41.633 86.958 66.295 134.442l1.542-133.825 54.888 1.85c.312 27.441.312 53.037.312 78.012 0 53.346-.62 104.225-2.466 164.046-8.634.308-15.113.617-20.663.617-11.1 0-18.504-.617-32.38-.617-8.937-17.887-42.553-77.092-64.753-121.8.925 40.396 2.466 100.525 1.541 122.417zM531.013 1882.914c7.404 2.47 13.88 1.854 19.433-4.625 5.55-6.475 4.004-8.017 4.317-22.2.308-10.483.92-22.2-10.796-24.358-8.942-1.546-7.4-.617-12.954-.93v52.113zm.62-104.533c7.4 2.162 13.876 1.854 19.426-4.625 4.937-5.859 3.391-8.942 3.704-23.125.308-10.484.308-25.592-11.72-26.825-5.55-.621-7.093 0-12.643 0l1.234 54.575zm29.913 146.779c-14.187 0-24.979.612-40.087.612-11.409 0-24.98-.304-44.713-1.537-.304-63.83-1.541-121.184-1.541-172.371 0-14.492 0-28.058.308-41.625l.62-31.454c14.492-.309 24.976-1.238 37.922-1.238 5.554 0 11.408 0 18.195.621 25.596 2.158 43.788 1.233 60.438 20.663 5.55 6.47 12.333 29.291 12.333 53.341 0 18.5-4.008 37.621-15.72 50.263 16.65 15.725 21.27 37.62 21.27 57.046 0 23.741-6.783 43.479-6.783 43.479-7.4 13.258-24.975 22.2-42.242 22.2zM660.517 1737.68c0-16.962 0-30.524 1.225-57.662a91.62 91.62 0 0112.959-.925c9.554 0 19.733 1.233 34.225 1.233 3.695 0 7.708 0 12.02-.308.93 32.375 1.238 63.52 1.238 94.046 0 43.787-.617 86.954-.617 132.904v17.575l-60.746-1.85s-.304-110.392-.304-140.917v-44.095zM842.122 1774.993c17.27.92 41.316.308 62.595 2.154 1.234 20.354 1.85 29.604-2.466 51.192l-62.592.308c.613 13.254.917 25.284 1.538 38.542 27.441-1.538 60.745-1.85 80.479 0-2.467 22.508-1.542 32.07-4.317 53.654-46.25 3.084-81.712 2.775-132.9 4.317-1.23-28.063-1.542-56.121-1.542-84.18 0-52.112 1.23-103.92 1.542-156.337 50.567-2.158 81.404-4.012 134.75-5.242.308 19.738.925 28.675 2.163 54.884l-78.021 1.854-1.23 38.854zM1050.555 1790.101c2.154-23.125 2.467-43.787-2.47-53.962-4.934-10.18-22.2-5.242-23.126-5.242-.925 0 1.538 45.634 3.088 66.296 20.654 4.62 22.508-7.092 22.508-7.092zm30.217 145.542c-20.663-47.483-27.138-63.829-39.471-93.742l-12.95-.308s-2.467 79.25-2.467 83.263c-5.246 0-9.25.304-12.642.304-14.804 0-15.42-1.233-36.695-2.163-1.238-54.883-1.238-93.737-2.467-145.229-.617-18.196-.925-38.546-.925-58.896 0-11.716.308-23.129.308-34.229 20.042-2.158 29.6-2.775 39.159-2.775 4.012 0 8.016.308 12.954.308 22.508.309 50.57 3.084 60.437 13.259 19.425 20.046 16.959 26.516 18.809 73.387 0 2.159.308 4.317.308 6.48 0 10.17-1.542 20.35-5.55 32.683l-14.804 22.508 39.162 83.871-43.166 21.28zM1226.913 1882.914c7.4 2.47 13.875 1.854 19.425-4.625 5.55-6.475 4.013-8.017 4.321-22.2.309-10.483.921-22.2-10.796-24.358-8.937-1.546-7.4-.617-12.95-.93v52.113zm.621-104.533c7.396 2.162 13.875 1.854 19.425-4.625 4.93-5.859 3.392-8.942 3.7-23.125.309-10.484.309-25.592-11.716-26.825-5.55-.621-7.096 0-12.646 0l1.237 54.575zm29.905 146.779c-14.184 0-24.976.612-40.084.612-11.408 0-24.979-.304-44.712-1.537-.309-63.83-1.538-121.184-1.538-172.371 0-14.492 0-28.058.308-41.625l.613-31.454c14.496-.309 24.98-1.238 37.93-1.238 5.55 0 11.407 0 18.195.621 25.592 2.158 43.783 1.233 60.433 20.663 5.55 6.47 12.338 29.291 12.338 53.341 0 18.5-4.013 37.621-15.73 50.263 16.65 15.725 21.28 37.62 21.28 57.046 0 23.741-6.788 43.479-6.788 43.479-7.395 13.258-24.975 22.2-42.245 22.2zM1413.143 1776.839c16.962.93 38.546.308 59.825 1.542 1.542 20.658.617 28.679-3.083 50.266l-59.205-2.162c.617 13.57-1.233 29.291 0 42.246 27.442 2.158 56.738.308 76.471 2.158 0 3.392-.308 6.475-.308 9.25 0 12.333.929 21.28.929 31.45 0 3.392 0 7.096-.312 10.796-15.725.925-29.909 1.233-44.096 1.233-18.192 0-35.771-.308-55.813-.308-9.862 0-20.35 0-31.758.308 0-43.787.612-87.883.92-134.75.313-33.3 1.855-68.767 2.163-102.375 50.258-2.467 77.088-3.7 129.817-7.092 0 12.025-.308 18.809-.308 27.755 0 6.166 0 13.254.612 23.741l-74.925 5.242-.93 40.7zM1620.655 1789.485c5.55-25.592 3.7-46.254-.929-56.43-4.62-10.179-22.2-5.55-23.12-5.55-.926 0 .92 48.717 1.85 69.38 20.658 4.929 22.2-7.4 22.2-7.4zm39.471 146.158c-24.975-45.325-33.612-64.442-45.329-94.358h-16.65s-.93 79.246-.93 83.258c-16.032 0-21.582.313-29.29.313-5.55 0-12.642-.313-25.592-.621-.309-60.13-1.546-115.013-1.546-171.442 0-24.058.308-48.412.929-73.7 10.17-.617 20.042-.617 36.692-.617 23.745 0 66.295 1.542 79.862 17.575 17.271 20.663 20.971 42.555 20.971 67.221 0 16.65 0 34.538-6.17 51.188l-12.026 13.566 45.642 80.788-46.563 26.83zM1851.597 1748.472c.617-23.746-12.337-20.658-22.2-21.275-7.712-.616-21.891 4.313-23.746 22.509-3.391 34.225-3.087 81.716 4.009 111.008 4.625 18.5 25.596 19.117 41.008 15.108 1.546-.308 4.321-41.012 4.321-41.012l-23.438-.304c-.92-24.671 0-20.971-2.775-39.471 29.605-2.467 33.613-.309 68.459-.309-.617 51.496-3.392 122.721-9.563 125.192-12.025 4.625-28.983 7.092-46.866 7.092-36.696 0-76.471-10.483-82.334-34.23-7.704-31.141-9.25-70.612-9.25-103.604 0-18.504.617-35.154.617-46.87.308-41.013 43.787-63.521 83.567-63.521 18.808 0 37 4.933 49.025 15.72 10.483 9.255 15.112 17.888 15.416 27.446l.617 22.821c-10.17.613-30.525 1.234-46.867 3.7zM2006.372 1774.993c17.271.92 41.317.308 62.6 2.154 1.234 20.354 1.846 29.604-2.466 51.192l-62.596.308c.617 13.254.92 25.284 1.537 38.542 27.45-1.538 60.75-1.85 80.484 0-2.467 22.508-1.546 32.07-4.321 53.654-46.25 3.084-81.713 2.775-132.896 4.317-1.233-28.063-1.546-56.121-1.546-84.18 0-52.112 1.234-103.92 1.546-156.337 50.567-2.158 81.404-4.012 134.75-5.242.309 19.738.921 28.675 2.159 54.884l-78.017 1.854-1.234 38.854zM2182.74 1923.31l-58.284 1.85.929-146.78-.93-97.75 47.797-.612c12.029 23.125 42.862 86.958 66.296 133.825l4.008-131.358 56.738-3.084c-2.467 85.413-6.167 156.334-8.942 244.526-13.259.616-21.275.929-28.675.929-7.404 0-14.184-.313-24.363-.313-5.241-10.791-18.191-33.916-29.908-61.67-8.33-19.117-15.73-31.142-24.983-49.03.929 40.396 1.237 87.575.316 109.467z" fill="#101211" data-darkreader-inline-fill="" style="--darkreader-inline-fill:#0e0e0e;"></path>
    <path d="M2034.002 1098.684a288.553 288.553 0 005.65-56.866c0-158.776-128.713-287.484-287.484-287.484-158.775 0-287.483 128.708-287.483 287.484 0 19.47 1.954 38.487 5.645 56.866h563.672z" fill="#e7511c" data-darkreader-inline-fill="" style="--darkreader-inline-fill:#b0431a;"></path>
    <path d="M1857.056 910.076c-2.042 0-4.084-.209-6.084-.584-2-.416-3.958-1-5.833-1.791-1.87-.792-3.708-1.75-5.375-2.875a30.356 30.356 0 01-4.75-3.875 30.575 30.575 0 01-3.87-4.75c-1.13-1.667-2.084-3.5-2.88-5.371a28.882 28.882 0 01-1.75-5.838c-.413-2-.625-4.041-.625-6.083 0-8.208 3.337-16.25 9.125-22.042 7.212-7.25 18.004-10.541 28.125-8.541 2.004.416 3.962 1 5.837 1.791 1.871.792 3.705 1.75 5.375 2.875a26.8 26.8 0 014.746 3.875c1.459 1.417 2.755 3 3.875 4.709a33.737 33.737 0 012.88 5.416 31.473 31.473 0 011.787 5.834c.42 2 .63 4.041.63 6.083 0 8.208-3.334 16.25-9.172 22.042-5.787 5.833-13.833 9.125-22.041 9.125z" fill="#272423" data-darkreader-inline-fill="" style="--darkreader-inline-fill:#d8d1c6;"></path>
    <path d="M1168.484 879.813c-120.291 0-217.804 97.513-217.804 217.8h435.6c0-120.287-97.508-217.8-217.796-217.8z" fill="#65143a" data-darkreader-inline-fill="" style="--darkreader-inline-fill:#4e132d;"></path>
  </g>
</svg>
